<?xml version="1.0" encoding="UTF-8" standalone="no"?>
<!DOCTYPE svg PUBLIC "-//W3C//DTD SVG 1.1//EN" "http://www.w3.org/Graphics/SVG/1.1/DTD/svg11.dtd">
<svg version="1.1" xmlns="http://www.w3.org/2000/svg" xmlns:xlink="http://www.w3.org/1999/xlink" preserveAspectRatio="xMidYMid meet" viewBox="0 0 640 640" width="640" height="640"><defs><path d="M456.25 269.17L456.25 201.67L456.25 269.17Z" id="c2wAb6wF7D"></path><path d="M524.38 250.42L520.63 270.42L511.87 285.42L481.88 314.17L423.13 342.92L380.63 352.92L331.88 359.17L290.63 359.17L218.13 352.92L151.88 331.67L123.13 305.42L108.13 279.17L98.13 254.17L524.38 250.42Z" id="akRv2p1eH"></path><mask id="maskc1P0VIJx4E" x="98.13" y="250.42" width="426.25" height="108.75" maskUnits="userSpaceOnUse"><rect x="98.13" y="250.42" width="426.25" height="108.75" fill="white"></rect><use xlink:href="#akRv2p1eH" opacity="1" fill="black"></use></mask><path d="M473.75 186.67C473.75 197.7 465.91 206.67 456.25 206.67C446.59 206.67 438.75 197.7 438.75 186.67C438.75 175.63 446.59 166.67 456.25 166.67C465.91 166.67 473.75 175.63 473.75 186.67Z" id="a2EMcbSqJ0"></path><path d="M591.25 372.92L591.25 271.92L530.5 201.67L456.25 223.62" id="c58IOK5I24"></path><path d="M487.54 443.73L487.54 489.8L487.54 443.73Z" id="c2ZKJgcIPw"></path><path d="M539.87 456.53L536.99 442.88L530.27 432.64L507.22 413.02L462.09 393.39L429.44 386.57L391.99 382.3L360.3 382.3L304.6 386.57L253.7 401.07L231.62 418.99L220.09 436.9L212.41 453.97L539.87 456.53Z" id="hylI44rOb"></path><mask id="maskb1PsvnfDjc" x="212.41" y="382.3" width="327.46" height="74.23" maskUnits="userSpaceOnUse"><rect x="212.41" y="382.3" width="327.46" height="74.23" fill="white"></rect><use xlink:href="#hylI44rOb" opacity="1" fill="black"></use></mask><path d="M500.98 500.04C500.98 492.51 494.96 486.39 487.54 486.39C480.12 486.39 474.09 492.51 474.09 500.04C474.09 507.57 480.12 513.69 487.54 513.69C494.96 513.69 500.98 507.57 500.98 500.04Z" id="aOR9GFIQm"></path><path d="M591.25 372.92L591.25 441.85L544.58 489.8L487.54 474.82" id="ciiRr0LaC"></path></defs><g><g><g><use xlink:href="#c2wAb6wF7D" opacity="1" fill="#151515" fill-opacity="1"></use><g><use xlink:href="#c2wAb6wF7D" opacity="1" fill-opacity="0" stroke="#151515" stroke-width="6" stroke-opacity="1"></use></g></g><g><use xlink:href="#akRv2p1eH" opacity="1" fill="#151515" fill-opacity="1"></use><g mask="url(#maskc1P0VIJx4E)"><use xlink:href="#akRv2p1eH" opacity="1" fill-opacity="0" stroke="#000000" stroke-width="0" stroke-opacity="1"></use></g></g><g><use xlink:href="#a2EMcbSqJ0" opacity="1" fill="#151515" fill-opacity="1"></use></g><g><g><use xlink:href="#c58IOK5I24" opacity="1" fill-opacity="0" stroke="#000000" stroke-width="1" stroke-opacity="1"></use></g></g><g><use xlink:href="#c2ZKJgcIPw" opacity="1" fill="#151515" fill-opacity="1"></use><g><use xlink:href="#c2ZKJgcIPw" opacity="1" fill-opacity="0" stroke="#3b3b3b" stroke-width="6" stroke-opacity="1"></use></g></g><g><use xlink:href="#hylI44rOb" opacity="1" fill="#3b3b3b" fill-opacity="1"></use><g mask="url(#maskb1PsvnfDjc)"><use xlink:href="#hylI44rOb" opacity="1" fill-opacity="0" stroke="#000000" stroke-width="0" stroke-opacity="1"></use></g></g><g><use xlink:href="#aOR9GFIQm" opacity="1" fill="#3b3b3b" fill-opacity="1"></use></g><g><g><use xlink:href="#ciiRr0LaC" opacity="1" fill-opacity="0" stroke="#3b3b3b" stroke-width="1" stroke-opacity="1"></use></g></g></g></g></svg>